<?xml version="1.0" encoding="utf-8"?>
<!-- Generator: Adobe Illustrator 19.2.1, SVG Export Plug-In . SVG Version: 6.00 Build 0)  -->
<svg version="1.1" xmlns="http://www.w3.org/2000/svg" xmlns:xlink="http://www.w3.org/1999/xlink" x="0px" y="0px"
	 viewBox="0 0 220 244" style="enable-background:new 0 0 220 244;" xml:space="preserve">
<style type="text/css">
	.st0{display:none;}
	.st1{display:inline;fill:#FFFFFF;}
	.st2{fill:#066C62;}
	.st3{fill:#00A69C;}
</style>
<g id="Background" class="st0">
	<rect x="-291" y="-219" class="st1" width="800" height="800"/>
</g>
<g id="Objects">
	<g>
		<path class="st2" d="M121.2,134.5c-0.2-2.9-0.5-5.7-0.8-8.6c-0.2-1.3-0.3-2.7-0.5-4c-0.1-0.5-0.1-1-0.2-1.5
			c-0.7-4.8-1.6-9.7-2.7-14.4c-0.3-1.4-0.7-2.7-1-4.1c0,0.2-0.1,0.3-0.2,0.4c-2.2,6.8-3.9,13.7-5.4,20.7c-3.4,15.9-5.4,32-8.6,47.9
			c-1.6,8.1-3.3,16.3-6.3,24c-2.8,6.9-6.2,13.7-13.8,16.2c-14.6,4.7-21.4-12.9-24.7-23.4c-3.9-12.3-6.5-24.9-9.6-37.5
			c-0.6-2.4-1.2-4.8-1.8-7.1c-3.4,16.5-5.2,33.6-11.6,49.2c0,0.1-0.1,0.2-0.1,0.4L90,225.2c5.8,3.4,13.8,4.8,21.4,4.4
			c0.2-0.5,0.5-0.9,0.7-1.4c0.2-0.4,0.4-0.8,0.6-1.2c0.8-2.1,1.6-4.2,2.3-6.3c1.6-5.1,2.8-10.3,3.8-15.5c0.5-2.8,1-5.6,1.4-8.5
			c0,0,0,0,0,0c0.1-0.6,0.2-1.2,0.2-1.8c0.2-1.5,0.3-3,0.5-4.5c0.6-6.1,1-12.3,1.2-18.4C122.5,159.4,122.2,146.9,121.2,134.5z"/>
		<path class="st2" d="M146.4,172.7c-0.5,14.4-1.6,29.8-5.1,44.4l44.2-25.7c10.3-5.9,18.5-20.5,18.5-32.4v-3.5l-72.5-78.4
			c4.7,6.2,7.1,14.8,8.8,22.4C145.8,123.2,147.3,148.4,146.4,172.7z"/>
		<path class="st3" d="M185.5,58.8l-58.4-33.9c-10.3-5.9-27-5.9-37.2,0L32,58.8c-10.3,5.9-18,20.5-18,32.3V159
			c0,3.7,0.2,7.6,1.7,11.5c2.5-10.1,3.8-20.4,5.9-30.6c1.6-7.7,3-15.7,6.1-23c2.6-6.2,6.2-14,13.7-15.4c8-1.6,14.5,2.4,18.5,9.2
			l23.4,24.9c2.1-12.2,4.4-24.4,7.9-36.3c2.6-8.6,5.8-20.4,13.2-26.3c9.6-7.7,19.9-5.3,27.1,4.1l72.5,78.4V91.1
			C204,79.3,195.8,64.7,185.5,58.8z"/>
		<path class="st2" d="M70.8,143.8c2.1,8.7,4.1,17.5,6.4,26.2c1.5-6.8,2.7-13.7,3.9-20.5c0.8-4.6,1.5-9.2,2.3-13.8l-23.5-24.9
			C65.7,120.5,68.1,132.8,70.8,143.8z"/>
	</g>
</g>
</svg>
